# xmcd
#
# Track frame offsets:
#	150
#	10289
#	24380
#	37936
#	51908
#	65954
#	79319
#	97552
#	114339
#	127545
#	142517
#	154151
#	168369
#	186612
#	196834
#	212261
#	225856
#	239891
#	257055
#	278788
#	292189
#	303882
#	320580
#
# Disc length: 4513 seconds
#
# Revision: 1
# Processed by: cddbd v1.5.2PL0 Copyright (c) Steve Scherf et al.
# Submitted via: audiograbber 1.83.01
#
DISCID=33119f17
DTITLE=Billy McFarland - The Very Best Of
DYEAR=1900
DGENRE=
TTITLE0=No Tears My Lady
TTITLE1=Just Pretending
TTITLE2=Roses Love Sunshine
TTITLE3=Rathlin Island
TTITLE4=A Little Piece At A Time
TTITLE5=Brown To Blue
TTITLE6=Jealous Heart/Any Dream Will Do/Send Me The Pillow
TTITLE7=I Overlooked An Orchid
TTITLE8=Truly Fair
TTITLE9=Angel Judy
TTITLE10=No More
TTITLE11=She Wears Red Feathers
TTITLE12=Rose Of Mooncoin
TTITLE13=Carry Me Back To Mayo
TTITLE14=The Spinning Wheel
TTITLE15=Will The Angels Play Their Harps
TTITLE16=Tonight Carmen
TTITLE17=Galway Bay
TTITLE18=Little Rosa
TTITLE19=She Wears My Ring
TTITLE20=The Older The Violin
TTITLE21=Oh My Pa Pa
TTITLE22=God's Little Corner
EXTD=
EXTT0=
EXTT1=
EXTT2=
EXTT3=
EXTT4=
EXTT5=
EXTT6=
EXTT7=
EXTT8=
EXTT9=
EXTT10=
EXTT11=
EXTT12=
EXTT13=
EXTT14=
EXTT15=
EXTT16=
EXTT17=
EXTT18=
EXTT19=
EXTT20=
EXTT21=
EXTT22=
PLAYORDER=
